<mxfile host="Electron" modified="2024-07-14T14:28:59.727Z" agent="Mozilla/5.0 (Windows NT 10.0; Win64; x64) AppleWebKit/537.36 (KHTML, like Gecko) draw.io/21.6.5 Chrome/114.0.5735.243 Electron/25.3.1 Safari/537.36" etag="hTB-VZzHg-6dWFUeklNW" version="21.6.5" type="device">
  <diagram name="Sayfa -1" id="H9G4G-xi_kOFt-lPiyls">
    <mxGraphModel dx="3431" dy="1557" grid="0" gridSize="10" guides="1" tooltips="1" connect="1" arrows="1" fold="1" page="0" pageScale="1" pageWidth="827" pageHeight="1169" background="none" math="0" shadow="0">
      <root>
        <mxCell id="0" />
        <mxCell id="1" parent="0" />
        <mxCell id="bSwZlp7oTd56xw5K2ig2-1" value="Quote System" style="swimlane;rounded=0;shadow=0;comic=0;startSize=29;strokeWidth=2;fillColor=none;fontFamily=Helvetica;fontSize=12;fontColor=#999999;html=1;collapsible=0;swimlaneLine=0;strokeColor=#5C5C5C;verticalAlign=middle;" parent="1" vertex="1">
          <mxGeometry x="-1769" y="-314" width="698" height="523" as="geometry">
            <mxRectangle x="26" y="45" width="40" height="29" as="alternateBounds" />
          </mxGeometry>
        </mxCell>
        <mxCell id="bSwZlp7oTd56xw5K2ig2-2" style="edgeStyle=none;rounded=0;orthogonalLoop=1;jettySize=auto;html=1;exitX=0.5;exitY=1;exitDx=0;exitDy=0;entryX=0.5;entryY=0;entryDx=0;entryDy=0;dashed=1;dashPattern=1 4;startFill=0;endArrow=classicThin;endFill=1;fontSize=10;" parent="bSwZlp7oTd56xw5K2ig2-1" edge="1">
          <mxGeometry relative="1" as="geometry">
            <mxPoint x="90" y="99" as="sourcePoint" />
          </mxGeometry>
        </mxCell>
        <mxCell id="bSwZlp7oTd56xw5K2ig2-40" value="Models" style="swimlane;rounded=0;shadow=0;comic=0;startSize=29;strokeWidth=2;fillColor=none;fontFamily=Helvetica;fontSize=12;fontColor=#999999;html=1;collapsible=0;swimlaneLine=0;strokeColor=#5C5C5C;verticalAlign=middle;" parent="bSwZlp7oTd56xw5K2ig2-1" vertex="1">
          <mxGeometry x="7" y="160" width="157" height="354" as="geometry">
            <mxRectangle x="26" y="45" width="40" height="29" as="alternateBounds" />
          </mxGeometry>
        </mxCell>
        <mxCell id="bSwZlp7oTd56xw5K2ig2-41" style="edgeStyle=none;rounded=0;orthogonalLoop=1;jettySize=auto;html=1;exitX=0.5;exitY=1;exitDx=0;exitDy=0;entryX=0.5;entryY=0;entryDx=0;entryDy=0;dashed=1;dashPattern=1 4;startFill=0;endArrow=classicThin;endFill=1;fontSize=10;" parent="bSwZlp7oTd56xw5K2ig2-40" edge="1">
          <mxGeometry relative="1" as="geometry">
            <mxPoint x="90" y="99" as="sourcePoint" />
          </mxGeometry>
        </mxCell>
        <mxCell id="bSwZlp7oTd56xw5K2ig2-42" value="&lt;p style=&quot;line-height: 100%&quot;&gt;LimitOrder&lt;/p&gt;" style="swimlane;fontStyle=0;align=center;verticalAlign=middle;childLayout=stackLayout;horizontal=1;startSize=27;horizontalStack=0;resizeParent=1;resizeLast=0;collapsible=0;marginBottom=0;rounded=0;shadow=0;strokeWidth=1;swimlaneFillColor=none;fillColor=#000000;swimlaneLine=1;comic=0;fontFamily=Roboto Light;fontSize=12;fontColor=#FFFFFF;labelBorderColor=none;arcSize=22;expand=0;allowArrows=1;gradientColor=none;html=1;" parent="bSwZlp7oTd56xw5K2ig2-40" vertex="1">
          <mxGeometry x="3.5" y="250" width="150" height="26" as="geometry">
            <mxRectangle x="172" y="264" width="100" height="20" as="alternateBounds" />
          </mxGeometry>
        </mxCell>
        <mxCell id="bSwZlp7oTd56xw5K2ig2-88" style="edgeStyle=orthogonalEdgeStyle;rounded=0;orthogonalLoop=1;jettySize=auto;html=1;exitX=0.5;exitY=1;exitDx=0;exitDy=0;entryX=0.5;entryY=0;entryDx=0;entryDy=0;" parent="bSwZlp7oTd56xw5K2ig2-40" source="bSwZlp7oTd56xw5K2ig2-43" target="bSwZlp7oTd56xw5K2ig2-42" edge="1">
          <mxGeometry relative="1" as="geometry" />
        </mxCell>
        <mxCell id="bSwZlp7oTd56xw5K2ig2-43" value="&lt;p style=&quot;line-height: 100%&quot;&gt;LimitOrderBook&lt;/p&gt;" style="swimlane;fontStyle=0;align=center;verticalAlign=middle;childLayout=stackLayout;horizontal=1;startSize=27;horizontalStack=0;resizeParent=1;resizeLast=0;collapsible=0;marginBottom=0;rounded=0;shadow=0;strokeWidth=1;swimlaneFillColor=none;fillColor=#000000;swimlaneLine=1;comic=0;fontFamily=Roboto Light;fontSize=12;fontColor=#FFFFFF;labelBorderColor=none;arcSize=22;expand=0;allowArrows=1;gradientColor=none;html=1;" parent="bSwZlp7oTd56xw5K2ig2-40" vertex="1">
          <mxGeometry x="3.5" y="211" width="150" height="26" as="geometry">
            <mxRectangle x="172" y="264" width="100" height="20" as="alternateBounds" />
          </mxGeometry>
        </mxCell>
        <mxCell id="bSwZlp7oTd56xw5K2ig2-44" value="&lt;p style=&quot;line-height: 100%&quot;&gt;QuoteRequest&lt;/p&gt;" style="swimlane;fontStyle=0;align=center;verticalAlign=middle;childLayout=stackLayout;horizontal=1;startSize=27;horizontalStack=0;resizeParent=1;resizeLast=0;collapsible=0;marginBottom=0;rounded=0;shadow=0;strokeWidth=1;swimlaneFillColor=none;fillColor=#000000;swimlaneLine=1;comic=0;fontFamily=Roboto Light;fontSize=12;fontColor=#FFFFFF;labelBorderColor=none;arcSize=22;expand=0;allowArrows=1;gradientColor=none;html=1;" parent="bSwZlp7oTd56xw5K2ig2-40" vertex="1">
          <mxGeometry x="3.5" y="30" width="150" height="26" as="geometry">
            <mxRectangle x="172" y="264" width="100" height="20" as="alternateBounds" />
          </mxGeometry>
        </mxCell>
        <mxCell id="bSwZlp7oTd56xw5K2ig2-62" value="&lt;p style=&quot;line-height: 100%&quot;&gt;QuoteResponse&lt;/p&gt;" style="swimlane;fontStyle=0;align=center;verticalAlign=middle;childLayout=stackLayout;horizontal=1;startSize=27;horizontalStack=0;resizeParent=1;resizeLast=0;collapsible=0;marginBottom=0;rounded=0;shadow=0;strokeWidth=1;swimlaneFillColor=none;fillColor=#000000;swimlaneLine=1;comic=0;fontFamily=Roboto Light;fontSize=12;fontColor=#FFFFFF;labelBorderColor=none;arcSize=22;expand=0;allowArrows=1;gradientColor=none;html=1;" parent="bSwZlp7oTd56xw5K2ig2-40" vertex="1">
          <mxGeometry x="3.5" y="59" width="150" height="26" as="geometry">
            <mxRectangle x="172" y="264" width="100" height="20" as="alternateBounds" />
          </mxGeometry>
        </mxCell>
        <mxCell id="bSwZlp7oTd56xw5K2ig2-58" style="edgeStyle=orthogonalEdgeStyle;rounded=0;orthogonalLoop=1;jettySize=auto;html=1;exitX=0;exitY=0.5;exitDx=0;exitDy=0;entryX=1;entryY=0.5;entryDx=0;entryDy=0;" parent="bSwZlp7oTd56xw5K2ig2-1" source="bSwZlp7oTd56xw5K2ig2-19" target="bSwZlp7oTd56xw5K2ig2-43" edge="1">
          <mxGeometry relative="1" as="geometry" />
        </mxCell>
        <mxCell id="bSwZlp7oTd56xw5K2ig2-5" value="Services and Utils" style="swimlane;rounded=0;shadow=0;comic=0;startSize=29;strokeWidth=2;fillColor=none;fontFamily=Helvetica;fontSize=12;fontColor=#999999;html=1;collapsible=0;swimlaneLine=0;strokeColor=#5C5C5C;verticalAlign=middle;" parent="bSwZlp7oTd56xw5K2ig2-1" vertex="1">
          <mxGeometry x="172" y="124" width="513" height="390" as="geometry">
            <mxRectangle x="26" y="45" width="40" height="29" as="alternateBounds" />
          </mxGeometry>
        </mxCell>
        <mxCell id="bSwZlp7oTd56xw5K2ig2-6" style="edgeStyle=none;rounded=0;orthogonalLoop=1;jettySize=auto;html=1;exitX=0.5;exitY=1;exitDx=0;exitDy=0;entryX=0.5;entryY=0;entryDx=0;entryDy=0;dashed=1;dashPattern=1 4;startFill=0;endArrow=classicThin;endFill=1;fontSize=10;" parent="bSwZlp7oTd56xw5K2ig2-5" edge="1">
          <mxGeometry relative="1" as="geometry">
            <mxPoint x="90" y="99" as="sourcePoint" />
          </mxGeometry>
        </mxCell>
        <mxCell id="bSwZlp7oTd56xw5K2ig2-56" style="edgeStyle=orthogonalEdgeStyle;rounded=0;orthogonalLoop=1;jettySize=auto;html=1;exitX=0;exitY=0.5;exitDx=0;exitDy=0;entryX=1;entryY=0.5;entryDx=0;entryDy=0;" parent="bSwZlp7oTd56xw5K2ig2-5" source="bSwZlp7oTd56xw5K2ig2-7" target="bSwZlp7oTd56xw5K2ig2-19" edge="1">
          <mxGeometry relative="1" as="geometry" />
        </mxCell>
        <mxCell id="bSwZlp7oTd56xw5K2ig2-82" style="edgeStyle=orthogonalEdgeStyle;rounded=0;orthogonalLoop=1;jettySize=auto;html=1;exitX=0.5;exitY=0;exitDx=0;exitDy=0;entryX=0.5;entryY=1;entryDx=0;entryDy=0;" parent="bSwZlp7oTd56xw5K2ig2-5" source="bSwZlp7oTd56xw5K2ig2-7" target="bSwZlp7oTd56xw5K2ig2-79" edge="1">
          <mxGeometry relative="1" as="geometry" />
        </mxCell>
        <mxCell id="bSwZlp7oTd56xw5K2ig2-7" value="ExchangeWebSocketClient" style="swimlane;fontStyle=0;align=center;verticalAlign=middle;childLayout=stackLayout;horizontal=1;startSize=22;horizontalStack=0;resizeParent=1;resizeLast=0;collapsible=0;marginBottom=0;rounded=0;shadow=0;strokeWidth=1;swimlaneFillColor=none;fillColor=#292929;swimlaneLine=1;comic=0;fontFamily=Roboto Light;fontSize=12;fontColor=#FFFFFF;labelBorderColor=none;arcSize=22;expand=0;allowArrows=1;gradientColor=none;html=1;" parent="bSwZlp7oTd56xw5K2ig2-5" vertex="1">
          <mxGeometry x="295" y="234" width="210" height="52" as="geometry">
            <mxRectangle x="172" y="264" width="100" height="20" as="alternateBounds" />
          </mxGeometry>
        </mxCell>
        <mxCell id="bSwZlp7oTd56xw5K2ig2-8" value="Transfers data from&amp;nbsp;stock exchange &lt;br&gt;web socket to observers" style="text;align=center;verticalAlign=middle;spacingLeft=4;spacingRight=4;overflow=hidden;rotatable=0;points=[[0,0.5],[1,0.5]];portConstraint=eastwest;fontSize=10;gradientColor=none;strokeWidth=1;fontFamily=Roboto Light;html=1;fontStyle=0;allowArrows=0;connectable=0;" parent="bSwZlp7oTd56xw5K2ig2-7" vertex="1">
          <mxGeometry y="22" width="210" height="30" as="geometry" />
        </mxCell>
        <mxCell id="bSwZlp7oTd56xw5K2ig2-19" value="ExchangeWebSocketMessageParser" style="swimlane;fontStyle=0;align=center;verticalAlign=middle;childLayout=stackLayout;horizontal=1;startSize=22;horizontalStack=0;resizeParent=1;resizeLast=0;collapsible=0;marginBottom=0;rounded=0;shadow=0;strokeWidth=1;swimlaneFillColor=none;fillColor=#292929;swimlaneLine=1;comic=0;fontFamily=Roboto Light;fontSize=12;fontColor=#FFFFFF;labelBorderColor=none;arcSize=22;expand=0;allowArrows=1;gradientColor=none;html=1;" parent="bSwZlp7oTd56xw5K2ig2-5" vertex="1">
          <mxGeometry x="61" y="234" width="210" height="52" as="geometry">
            <mxRectangle x="172" y="264" width="100" height="20" as="alternateBounds" />
          </mxGeometry>
        </mxCell>
        <mxCell id="bSwZlp7oTd56xw5K2ig2-20" value="Converts raw json messages to models" style="text;align=center;verticalAlign=middle;spacingLeft=4;spacingRight=4;overflow=hidden;rotatable=0;points=[[0,0.5],[1,0.5]];portConstraint=eastwest;fontSize=10;gradientColor=none;strokeWidth=1;fontFamily=Roboto Light;html=1;fontStyle=0;allowArrows=0;connectable=0;" parent="bSwZlp7oTd56xw5K2ig2-19" vertex="1">
          <mxGeometry y="22" width="210" height="30" as="geometry" />
        </mxCell>
        <mxCell id="bSwZlp7oTd56xw5K2ig2-10" value="BINANCE SPOT" style="swimlane;rounded=0;shadow=0;comic=0;startSize=29;strokeWidth=2;fillColor=none;fontFamily=Helvetica;fontSize=12;fontColor=#999999;html=1;collapsible=0;swimlaneLine=0;strokeColor=#5C5C5C;verticalAlign=middle;" parent="bSwZlp7oTd56xw5K2ig2-5" vertex="1">
          <mxGeometry x="7" y="309" width="504" height="72" as="geometry">
            <mxRectangle x="26" y="45" width="40" height="29" as="alternateBounds" />
          </mxGeometry>
        </mxCell>
        <mxCell id="bSwZlp7oTd56xw5K2ig2-11" style="edgeStyle=none;rounded=0;orthogonalLoop=1;jettySize=auto;html=1;exitX=0.5;exitY=1;exitDx=0;exitDy=0;entryX=0.5;entryY=0;entryDx=0;entryDy=0;dashed=1;dashPattern=1 4;startFill=0;endArrow=classicThin;endFill=1;fontSize=10;" parent="bSwZlp7oTd56xw5K2ig2-10" edge="1">
          <mxGeometry relative="1" as="geometry">
            <mxPoint x="90" y="99" as="sourcePoint" />
          </mxGeometry>
        </mxCell>
        <mxCell id="bSwZlp7oTd56xw5K2ig2-61" style="edgeStyle=orthogonalEdgeStyle;rounded=0;orthogonalLoop=1;jettySize=auto;html=1;exitX=0;exitY=0.5;exitDx=0;exitDy=0;entryX=1;entryY=0.5;entryDx=0;entryDy=0;" parent="bSwZlp7oTd56xw5K2ig2-10" source="bSwZlp7oTd56xw5K2ig2-12" target="bSwZlp7oTd56xw5K2ig2-13" edge="1">
          <mxGeometry relative="1" as="geometry" />
        </mxCell>
        <mxCell id="bSwZlp7oTd56xw5K2ig2-12" value="&lt;p style=&quot;line-height: 100%&quot;&gt;BinanceSpotWebSocketClient&lt;/p&gt;" style="swimlane;fontStyle=0;align=center;verticalAlign=middle;childLayout=stackLayout;horizontal=1;startSize=27;horizontalStack=0;resizeParent=1;resizeLast=0;collapsible=0;marginBottom=0;rounded=0;shadow=0;strokeWidth=1;swimlaneFillColor=none;fillColor=#000000;swimlaneLine=1;comic=0;fontFamily=Roboto Light;fontSize=12;fontColor=#FFFFFF;labelBorderColor=none;arcSize=22;expand=0;allowArrows=1;gradientColor=none;html=1;" parent="bSwZlp7oTd56xw5K2ig2-10" vertex="1">
          <mxGeometry x="288" y="28" width="210" height="26" as="geometry">
            <mxRectangle x="172" y="264" width="100" height="20" as="alternateBounds" />
          </mxGeometry>
        </mxCell>
        <mxCell id="bSwZlp7oTd56xw5K2ig2-13" value="&lt;p style=&quot;line-height: 100%&quot;&gt;BinanceSpotWebSocketMessageParser&lt;/p&gt;" style="swimlane;fontStyle=0;align=center;verticalAlign=middle;childLayout=stackLayout;horizontal=1;startSize=27;horizontalStack=0;resizeParent=1;resizeLast=0;collapsible=0;marginBottom=0;rounded=0;shadow=0;strokeWidth=1;swimlaneFillColor=none;fillColor=#000000;swimlaneLine=1;comic=0;fontFamily=Roboto Light;fontSize=12;fontColor=#FFFFFF;labelBorderColor=none;arcSize=22;expand=0;allowArrows=1;gradientColor=none;html=1;" parent="bSwZlp7oTd56xw5K2ig2-10" vertex="1">
          <mxGeometry x="54" y="28" width="210" height="26" as="geometry">
            <mxRectangle x="172" y="264" width="100" height="20" as="alternateBounds" />
          </mxGeometry>
        </mxCell>
        <mxCell id="bSwZlp7oTd56xw5K2ig2-9" style="edgeStyle=orthogonalEdgeStyle;rounded=0;orthogonalLoop=1;jettySize=auto;html=1;exitX=0.5;exitY=0;exitDx=0;exitDy=0;entryX=0.5;entryY=1;entryDx=0;entryDy=0;dashed=1;endArrow=block;endFill=1;" parent="bSwZlp7oTd56xw5K2ig2-5" source="bSwZlp7oTd56xw5K2ig2-12" target="bSwZlp7oTd56xw5K2ig2-7" edge="1">
          <mxGeometry relative="1" as="geometry" />
        </mxCell>
        <mxCell id="bSwZlp7oTd56xw5K2ig2-60" style="edgeStyle=orthogonalEdgeStyle;rounded=0;orthogonalLoop=1;jettySize=auto;html=1;exitX=0.5;exitY=0;exitDx=0;exitDy=0;entryX=0.5;entryY=1;entryDx=0;entryDy=0;dashed=1;endArrow=block;endFill=1;" parent="bSwZlp7oTd56xw5K2ig2-5" source="bSwZlp7oTd56xw5K2ig2-13" target="bSwZlp7oTd56xw5K2ig2-19" edge="1">
          <mxGeometry relative="1" as="geometry">
            <mxPoint x="399.5" y="267" as="sourcePoint" />
            <mxPoint x="399.5" y="216" as="targetPoint" />
          </mxGeometry>
        </mxCell>
        <mxCell id="bSwZlp7oTd56xw5K2ig2-79" value="OrderBookObserver" style="swimlane;fontStyle=0;align=center;verticalAlign=middle;childLayout=stackLayout;horizontal=1;startSize=22;horizontalStack=0;resizeParent=1;resizeLast=0;collapsible=0;marginBottom=0;rounded=0;shadow=0;strokeWidth=1;swimlaneFillColor=none;fillColor=#292929;swimlaneLine=1;comic=0;fontFamily=Roboto Light;fontSize=12;fontColor=#FFFFFF;labelBorderColor=none;arcSize=22;expand=0;allowArrows=1;gradientColor=none;html=1;" parent="bSwZlp7oTd56xw5K2ig2-5" vertex="1">
          <mxGeometry x="295" y="149" width="210" height="52" as="geometry">
            <mxRectangle x="172" y="264" width="100" height="20" as="alternateBounds" />
          </mxGeometry>
        </mxCell>
        <mxCell id="bSwZlp7oTd56xw5K2ig2-80" value="Listens order book events" style="text;align=center;verticalAlign=middle;spacingLeft=4;spacingRight=4;overflow=hidden;rotatable=0;points=[[0,0.5],[1,0.5]];portConstraint=eastwest;fontSize=10;gradientColor=none;strokeWidth=1;fontFamily=Roboto Light;html=1;fontStyle=0;allowArrows=0;connectable=0;" parent="bSwZlp7oTd56xw5K2ig2-79" vertex="1">
          <mxGeometry y="22" width="210" height="30" as="geometry" />
        </mxCell>
        <mxCell id="bSwZlp7oTd56xw5K2ig2-65" value="QuoteService" style="swimlane;fontStyle=0;align=center;verticalAlign=middle;childLayout=stackLayout;horizontal=1;startSize=22;horizontalStack=0;resizeParent=1;resizeLast=0;collapsible=0;marginBottom=0;rounded=0;shadow=0;strokeWidth=1;swimlaneFillColor=none;fillColor=#000000;swimlaneLine=1;comic=0;fontFamily=Roboto Light;fontSize=12;fontColor=#FFFFFF;labelBorderColor=none;arcSize=22;expand=0;allowArrows=1;gradientColor=none;html=1;" parent="bSwZlp7oTd56xw5K2ig2-5" vertex="1">
          <mxGeometry x="61" y="149" width="210" height="52" as="geometry">
            <mxRectangle x="172" y="264" width="100" height="20" as="alternateBounds" />
          </mxGeometry>
        </mxCell>
        <mxCell id="bSwZlp7oTd56xw5K2ig2-66" value="Stores order books in memory and &lt;br&gt;calculates best price for given request" style="text;align=center;verticalAlign=middle;spacingLeft=4;spacingRight=4;overflow=hidden;rotatable=0;points=[[0,0.5],[1,0.5]];portConstraint=eastwest;fontSize=10;gradientColor=none;strokeWidth=1;fontFamily=Roboto Light;html=1;fontStyle=0;allowArrows=0;connectable=0;" parent="bSwZlp7oTd56xw5K2ig2-65" vertex="1">
          <mxGeometry y="22" width="210" height="30" as="geometry" />
        </mxCell>
        <mxCell id="bSwZlp7oTd56xw5K2ig2-81" style="edgeStyle=orthogonalEdgeStyle;rounded=0;orthogonalLoop=1;jettySize=auto;html=1;exitX=1;exitY=0.5;exitDx=0;exitDy=0;entryX=0;entryY=0.5;entryDx=0;entryDy=0;dashed=1;endArrow=block;endFill=1;" parent="bSwZlp7oTd56xw5K2ig2-5" source="bSwZlp7oTd56xw5K2ig2-65" target="bSwZlp7oTd56xw5K2ig2-79" edge="1">
          <mxGeometry relative="1" as="geometry">
            <mxPoint x="408" y="347" as="sourcePoint" />
            <mxPoint x="408" y="296" as="targetPoint" />
          </mxGeometry>
        </mxCell>
        <mxCell id="bSwZlp7oTd56xw5K2ig2-91" value="QuoteParser" style="swimlane;fontStyle=0;align=center;verticalAlign=middle;childLayout=stackLayout;horizontal=1;startSize=22;horizontalStack=0;resizeParent=1;resizeLast=0;collapsible=0;marginBottom=0;rounded=0;shadow=0;strokeWidth=1;swimlaneFillColor=none;fillColor=#000000;swimlaneLine=1;comic=0;fontFamily=Roboto Light;fontSize=12;fontColor=#FFFFFF;labelBorderColor=none;arcSize=22;expand=0;allowArrows=1;gradientColor=none;html=1;" parent="bSwZlp7oTd56xw5K2ig2-5" vertex="1">
          <mxGeometry x="61" y="69" width="210" height="52" as="geometry">
            <mxRectangle x="172" y="264" width="100" height="20" as="alternateBounds" />
          </mxGeometry>
        </mxCell>
        <mxCell id="bSwZlp7oTd56xw5K2ig2-92" value="Validates json request parameters&lt;br&gt;and converts QuoteRequest-Response&amp;nbsp;" style="text;align=center;verticalAlign=middle;spacingLeft=4;spacingRight=4;overflow=hidden;rotatable=0;points=[[0,0.5],[1,0.5]];portConstraint=eastwest;fontSize=10;gradientColor=none;strokeWidth=1;fontFamily=Roboto Light;html=1;fontStyle=0;allowArrows=0;connectable=0;" parent="bSwZlp7oTd56xw5K2ig2-91" vertex="1">
          <mxGeometry y="22" width="210" height="30" as="geometry" />
        </mxCell>
        <mxCell id="bSwZlp7oTd56xw5K2ig2-69" value="Controllers" style="swimlane;rounded=0;shadow=0;comic=0;startSize=29;strokeWidth=2;fillColor=none;fontFamily=Helvetica;fontSize=12;fontColor=#999999;html=1;collapsible=0;swimlaneLine=0;strokeColor=#5C5C5C;verticalAlign=middle;" parent="bSwZlp7oTd56xw5K2ig2-1" vertex="1">
          <mxGeometry x="435" y="8" width="250" height="104" as="geometry">
            <mxRectangle x="26" y="45" width="40" height="29" as="alternateBounds" />
          </mxGeometry>
        </mxCell>
        <mxCell id="bSwZlp7oTd56xw5K2ig2-70" style="edgeStyle=none;rounded=0;orthogonalLoop=1;jettySize=auto;html=1;exitX=0.5;exitY=1;exitDx=0;exitDy=0;entryX=0.5;entryY=0;entryDx=0;entryDy=0;dashed=1;dashPattern=1 4;startFill=0;endArrow=classicThin;endFill=1;fontSize=10;" parent="bSwZlp7oTd56xw5K2ig2-69" edge="1">
          <mxGeometry relative="1" as="geometry">
            <mxPoint x="90" y="99" as="sourcePoint" />
          </mxGeometry>
        </mxCell>
        <mxCell id="bSwZlp7oTd56xw5K2ig2-72" style="edgeStyle=orthogonalEdgeStyle;rounded=0;orthogonalLoop=1;jettySize=auto;html=1;exitX=0.5;exitY=0;exitDx=0;exitDy=0;entryX=0.5;entryY=1;entryDx=0;entryDy=0;" parent="bSwZlp7oTd56xw5K2ig2-69" edge="1">
          <mxGeometry relative="1" as="geometry">
            <mxPoint x="78.5" y="160" as="targetPoint" />
          </mxGeometry>
        </mxCell>
        <mxCell id="bSwZlp7oTd56xw5K2ig2-77" value="QuoteController" style="swimlane;fontStyle=0;align=center;verticalAlign=middle;childLayout=stackLayout;horizontal=1;startSize=22;horizontalStack=0;resizeParent=1;resizeLast=0;collapsible=0;marginBottom=0;rounded=0;shadow=0;strokeWidth=1;swimlaneFillColor=none;fillColor=#000000;swimlaneLine=1;comic=0;fontFamily=Roboto Light;fontSize=12;fontColor=#FFFFFF;labelBorderColor=none;arcSize=22;expand=0;allowArrows=1;gradientColor=none;html=1;" parent="bSwZlp7oTd56xw5K2ig2-69" vertex="1">
          <mxGeometry x="16" y="41" width="219" height="52" as="geometry">
            <mxRectangle x="172" y="264" width="100" height="20" as="alternateBounds" />
          </mxGeometry>
        </mxCell>
        <mxCell id="bSwZlp7oTd56xw5K2ig2-78" value="Serves http requests with QuoteService" style="text;align=center;verticalAlign=middle;spacingLeft=4;spacingRight=4;overflow=hidden;rotatable=0;points=[[0,0.5],[1,0.5]];portConstraint=eastwest;fontSize=10;gradientColor=none;strokeWidth=1;fontFamily=Roboto Light;html=1;fontStyle=0;allowArrows=0;connectable=0;" parent="bSwZlp7oTd56xw5K2ig2-77" vertex="1">
          <mxGeometry y="22" width="219" height="30" as="geometry" />
        </mxCell>
        <mxCell id="bSwZlp7oTd56xw5K2ig2-87" style="edgeStyle=orthogonalEdgeStyle;rounded=0;orthogonalLoop=1;jettySize=auto;html=1;exitX=0;exitY=0.5;exitDx=0;exitDy=0;entryX=0;entryY=0.5;entryDx=0;entryDy=0;" parent="bSwZlp7oTd56xw5K2ig2-1" source="bSwZlp7oTd56xw5K2ig2-77" target="bSwZlp7oTd56xw5K2ig2-65" edge="1">
          <mxGeometry relative="1" as="geometry">
            <Array as="points">
              <mxPoint x="200" y="75" />
              <mxPoint x="200" y="299" />
            </Array>
          </mxGeometry>
        </mxCell>
        <mxCell id="bSwZlp7oTd56xw5K2ig2-94" style="edgeStyle=orthogonalEdgeStyle;rounded=0;orthogonalLoop=1;jettySize=auto;html=1;exitX=0;exitY=0.5;exitDx=0;exitDy=0;entryX=0;entryY=0.5;entryDx=0;entryDy=0;" parent="bSwZlp7oTd56xw5K2ig2-1" source="bSwZlp7oTd56xw5K2ig2-77" target="bSwZlp7oTd56xw5K2ig2-91" edge="1">
          <mxGeometry relative="1" as="geometry">
            <Array as="points">
              <mxPoint x="200" y="75" />
              <mxPoint x="200" y="219" />
            </Array>
          </mxGeometry>
        </mxCell>
        <mxCell id="bSwZlp7oTd56xw5K2ig2-95" style="edgeStyle=orthogonalEdgeStyle;rounded=0;orthogonalLoop=1;jettySize=auto;html=1;exitX=0;exitY=0.5;exitDx=0;exitDy=0;entryX=1;entryY=0;entryDx=0;entryDy=0;" parent="bSwZlp7oTd56xw5K2ig2-1" source="bSwZlp7oTd56xw5K2ig2-91" target="bSwZlp7oTd56xw5K2ig2-62" edge="1">
          <mxGeometry relative="1" as="geometry">
            <Array as="points">
              <mxPoint x="183" y="219" />
              <mxPoint x="183" y="219" />
            </Array>
          </mxGeometry>
        </mxCell>
        <mxCell id="nI1Q-nyX3zTOMnRVsNWt-3" style="edgeStyle=orthogonalEdgeStyle;rounded=0;orthogonalLoop=1;jettySize=auto;html=1;exitX=0.5;exitY=1;exitDx=0;exitDy=0;entryX=0.5;entryY=0;entryDx=0;entryDy=0;" edge="1" parent="1" source="nI1Q-nyX3zTOMnRVsNWt-1" target="bSwZlp7oTd56xw5K2ig2-1">
          <mxGeometry relative="1" as="geometry" />
        </mxCell>
        <mxCell id="nI1Q-nyX3zTOMnRVsNWt-1" value="QuoteServer" style="swimlane;fontStyle=0;align=center;verticalAlign=middle;childLayout=stackLayout;horizontal=1;startSize=22;horizontalStack=0;resizeParent=1;resizeLast=0;collapsible=0;marginBottom=0;rounded=0;shadow=0;strokeWidth=1;swimlaneFillColor=none;fillColor=#000000;swimlaneLine=1;comic=0;fontFamily=Roboto Light;fontSize=12;fontColor=#FFFFFF;labelBorderColor=none;arcSize=22;expand=0;allowArrows=1;gradientColor=none;html=1;" vertex="1" parent="1">
          <mxGeometry x="-1525" y="-403" width="210" height="52" as="geometry">
            <mxRectangle x="172" y="264" width="100" height="20" as="alternateBounds" />
          </mxGeometry>
        </mxCell>
        <mxCell id="nI1Q-nyX3zTOMnRVsNWt-2" value="Initializes all required services" style="text;align=center;verticalAlign=middle;spacingLeft=4;spacingRight=4;overflow=hidden;rotatable=0;points=[[0,0.5],[1,0.5]];portConstraint=eastwest;fontSize=10;gradientColor=none;strokeWidth=1;fontFamily=Roboto Light;html=1;fontStyle=0;allowArrows=0;connectable=0;" vertex="1" parent="nI1Q-nyX3zTOMnRVsNWt-1">
          <mxGeometry y="22" width="210" height="30" as="geometry" />
        </mxCell>
        <mxCell id="nI1Q-nyX3zTOMnRVsNWt-6" style="edgeStyle=orthogonalEdgeStyle;rounded=0;orthogonalLoop=1;jettySize=auto;html=1;exitX=0.5;exitY=1;exitDx=0;exitDy=0;entryX=0.5;entryY=0;entryDx=0;entryDy=0;" edge="1" parent="1" source="nI1Q-nyX3zTOMnRVsNWt-4" target="nI1Q-nyX3zTOMnRVsNWt-1">
          <mxGeometry relative="1" as="geometry" />
        </mxCell>
        <mxCell id="nI1Q-nyX3zTOMnRVsNWt-4" value="App" style="swimlane;fontStyle=0;align=center;verticalAlign=middle;childLayout=stackLayout;horizontal=1;startSize=22;horizontalStack=0;resizeParent=1;resizeLast=0;collapsible=0;marginBottom=0;rounded=0;shadow=0;strokeWidth=1;swimlaneFillColor=none;fillColor=#000000;swimlaneLine=1;comic=0;fontFamily=Roboto Light;fontSize=12;fontColor=#FFFFFF;labelBorderColor=none;arcSize=22;expand=0;allowArrows=1;gradientColor=none;html=1;" vertex="1" parent="1">
          <mxGeometry x="-1525" y="-482" width="210" height="52" as="geometry">
            <mxRectangle x="172" y="264" width="100" height="20" as="alternateBounds" />
          </mxGeometry>
        </mxCell>
        <mxCell id="nI1Q-nyX3zTOMnRVsNWt-5" value="Configures and runs QuoteServer" style="text;align=center;verticalAlign=middle;spacingLeft=4;spacingRight=4;overflow=hidden;rotatable=0;points=[[0,0.5],[1,0.5]];portConstraint=eastwest;fontSize=10;gradientColor=none;strokeWidth=1;fontFamily=Roboto Light;html=1;fontStyle=0;allowArrows=0;connectable=0;" vertex="1" parent="nI1Q-nyX3zTOMnRVsNWt-4">
          <mxGeometry y="22" width="210" height="30" as="geometry" />
        </mxCell>
        <mxCell id="nI1Q-nyX3zTOMnRVsNWt-7" value="Legend" style="swimlane;rounded=0;shadow=0;comic=0;startSize=29;strokeWidth=2;fillColor=none;fontFamily=Helvetica;fontSize=12;fontColor=#999999;html=1;collapsible=0;swimlaneLine=0;strokeColor=#5C5C5C;verticalAlign=middle;" vertex="1" parent="1">
          <mxGeometry x="-1997" y="-314" width="157" height="354" as="geometry">
            <mxRectangle x="26" y="45" width="40" height="29" as="alternateBounds" />
          </mxGeometry>
        </mxCell>
        <mxCell id="nI1Q-nyX3zTOMnRVsNWt-8" style="edgeStyle=none;rounded=0;orthogonalLoop=1;jettySize=auto;html=1;exitX=0.5;exitY=1;exitDx=0;exitDy=0;entryX=0.5;entryY=0;entryDx=0;entryDy=0;dashed=1;dashPattern=1 4;startFill=0;endArrow=classicThin;endFill=1;fontSize=10;" edge="1" parent="nI1Q-nyX3zTOMnRVsNWt-7">
          <mxGeometry relative="1" as="geometry">
            <mxPoint x="90" y="99" as="sourcePoint" />
          </mxGeometry>
        </mxCell>
        <mxCell id="nI1Q-nyX3zTOMnRVsNWt-9" value="&lt;p style=&quot;line-height: 100%&quot;&gt;B&lt;/p&gt;" style="swimlane;fontStyle=0;align=center;verticalAlign=middle;childLayout=stackLayout;horizontal=1;startSize=27;horizontalStack=0;resizeParent=1;resizeLast=0;collapsible=0;marginBottom=0;rounded=0;shadow=0;strokeWidth=1;swimlaneFillColor=none;fillColor=#000000;swimlaneLine=1;comic=0;fontFamily=Roboto Light;fontSize=12;fontColor=#FFFFFF;labelBorderColor=none;arcSize=22;expand=0;allowArrows=1;gradientColor=none;html=1;" vertex="1" parent="nI1Q-nyX3zTOMnRVsNWt-7">
          <mxGeometry x="3.5" y="185" width="150" height="26" as="geometry">
            <mxRectangle x="172" y="264" width="100" height="20" as="alternateBounds" />
          </mxGeometry>
        </mxCell>
        <mxCell id="nI1Q-nyX3zTOMnRVsNWt-10" style="edgeStyle=orthogonalEdgeStyle;rounded=0;orthogonalLoop=1;jettySize=auto;html=1;exitX=0.5;exitY=1;exitDx=0;exitDy=0;entryX=0.5;entryY=0;entryDx=0;entryDy=0;" edge="1" parent="nI1Q-nyX3zTOMnRVsNWt-7" source="nI1Q-nyX3zTOMnRVsNWt-11" target="nI1Q-nyX3zTOMnRVsNWt-9">
          <mxGeometry relative="1" as="geometry" />
        </mxCell>
        <mxCell id="nI1Q-nyX3zTOMnRVsNWt-14" value="A uses/depends B" style="edgeLabel;html=1;align=center;verticalAlign=middle;resizable=0;points=[];" vertex="1" connectable="0" parent="nI1Q-nyX3zTOMnRVsNWt-10">
          <mxGeometry x="-0.0364" y="-1" relative="1" as="geometry">
            <mxPoint x="53" y="-1" as="offset" />
          </mxGeometry>
        </mxCell>
        <mxCell id="nI1Q-nyX3zTOMnRVsNWt-11" value="&lt;p style=&quot;line-height: 100%&quot;&gt;A&lt;/p&gt;" style="swimlane;fontStyle=0;align=center;verticalAlign=middle;childLayout=stackLayout;horizontal=1;startSize=27;horizontalStack=0;resizeParent=1;resizeLast=0;collapsible=0;marginBottom=0;rounded=0;shadow=0;strokeWidth=1;swimlaneFillColor=none;fillColor=#000000;swimlaneLine=1;comic=0;fontFamily=Roboto Light;fontSize=12;fontColor=#FFFFFF;labelBorderColor=none;arcSize=22;expand=0;allowArrows=1;gradientColor=none;html=1;" vertex="1" parent="nI1Q-nyX3zTOMnRVsNWt-7">
          <mxGeometry x="3.5" y="117" width="150" height="26" as="geometry">
            <mxRectangle x="172" y="264" width="100" height="20" as="alternateBounds" />
          </mxGeometry>
        </mxCell>
        <mxCell id="nI1Q-nyX3zTOMnRVsNWt-12" value="&lt;p style=&quot;line-height: 100%&quot;&gt;Class&lt;/p&gt;" style="swimlane;fontStyle=0;align=center;verticalAlign=middle;childLayout=stackLayout;horizontal=1;startSize=27;horizontalStack=0;resizeParent=1;resizeLast=0;collapsible=0;marginBottom=0;rounded=0;shadow=0;strokeWidth=1;swimlaneFillColor=none;fillColor=#000000;swimlaneLine=1;comic=0;fontFamily=Roboto Light;fontSize=12;fontColor=#FFFFFF;labelBorderColor=none;arcSize=22;expand=0;allowArrows=1;gradientColor=none;html=1;" vertex="1" parent="nI1Q-nyX3zTOMnRVsNWt-7">
          <mxGeometry x="3.5" y="30" width="150" height="26" as="geometry">
            <mxRectangle x="172" y="264" width="100" height="20" as="alternateBounds" />
          </mxGeometry>
        </mxCell>
        <mxCell id="nI1Q-nyX3zTOMnRVsNWt-13" value="&lt;p style=&quot;line-height: 100%&quot;&gt;Abstract Class&lt;/p&gt;" style="swimlane;fontStyle=0;align=center;verticalAlign=middle;childLayout=stackLayout;horizontal=1;startSize=27;horizontalStack=0;resizeParent=1;resizeLast=0;collapsible=0;marginBottom=0;rounded=0;shadow=0;strokeWidth=1;swimlaneFillColor=none;fillColor=#292929;swimlaneLine=1;comic=0;fontFamily=Roboto Light;fontSize=12;fontColor=#FFFFFF;labelBorderColor=none;arcSize=22;expand=0;allowArrows=1;gradientColor=none;html=1;" vertex="1" parent="nI1Q-nyX3zTOMnRVsNWt-7">
          <mxGeometry x="3.5" y="59" width="150" height="26" as="geometry">
            <mxRectangle x="172" y="264" width="100" height="20" as="alternateBounds" />
          </mxGeometry>
        </mxCell>
        <mxCell id="nI1Q-nyX3zTOMnRVsNWt-17" value="&lt;p style=&quot;line-height: 100%&quot;&gt;B&lt;/p&gt;" style="swimlane;fontStyle=0;align=center;verticalAlign=middle;childLayout=stackLayout;horizontal=1;startSize=27;horizontalStack=0;resizeParent=1;resizeLast=0;collapsible=0;marginBottom=0;rounded=0;shadow=0;strokeWidth=1;swimlaneFillColor=none;fillColor=#000000;swimlaneLine=1;comic=0;fontFamily=Roboto Light;fontSize=12;fontColor=#FFFFFF;labelBorderColor=none;arcSize=22;expand=0;allowArrows=1;gradientColor=none;html=1;" vertex="1" parent="nI1Q-nyX3zTOMnRVsNWt-7">
          <mxGeometry x="3.5" y="300" width="150" height="26" as="geometry">
            <mxRectangle x="172" y="264" width="100" height="20" as="alternateBounds" />
          </mxGeometry>
        </mxCell>
        <mxCell id="nI1Q-nyX3zTOMnRVsNWt-18" style="edgeStyle=orthogonalEdgeStyle;rounded=0;orthogonalLoop=1;jettySize=auto;html=1;exitX=0.5;exitY=1;exitDx=0;exitDy=0;entryX=0.5;entryY=0;entryDx=0;entryDy=0;endArrow=block;dashed=1;endFill=1;" edge="1" parent="nI1Q-nyX3zTOMnRVsNWt-7" source="nI1Q-nyX3zTOMnRVsNWt-20" target="nI1Q-nyX3zTOMnRVsNWt-17">
          <mxGeometry relative="1" as="geometry" />
        </mxCell>
        <mxCell id="nI1Q-nyX3zTOMnRVsNWt-19" value="A implements/extends B" style="edgeLabel;html=1;align=center;verticalAlign=middle;resizable=0;points=[];" vertex="1" connectable="0" parent="nI1Q-nyX3zTOMnRVsNWt-18">
          <mxGeometry x="-0.0364" y="-1" relative="1" as="geometry">
            <mxPoint x="65" y="-1" as="offset" />
          </mxGeometry>
        </mxCell>
        <mxCell id="nI1Q-nyX3zTOMnRVsNWt-20" value="&lt;p style=&quot;line-height: 100%&quot;&gt;A&lt;/p&gt;" style="swimlane;fontStyle=0;align=center;verticalAlign=middle;childLayout=stackLayout;horizontal=1;startSize=27;horizontalStack=0;resizeParent=1;resizeLast=0;collapsible=0;marginBottom=0;rounded=0;shadow=0;strokeWidth=1;swimlaneFillColor=none;fillColor=#000000;swimlaneLine=1;comic=0;fontFamily=Roboto Light;fontSize=12;fontColor=#FFFFFF;labelBorderColor=none;arcSize=22;expand=0;allowArrows=1;gradientColor=none;html=1;" vertex="1" parent="nI1Q-nyX3zTOMnRVsNWt-7">
          <mxGeometry x="3.5" y="232" width="150" height="26" as="geometry">
            <mxRectangle x="172" y="264" width="100" height="20" as="alternateBounds" />
          </mxGeometry>
        </mxCell>
        <mxCell id="nI1Q-nyX3zTOMnRVsNWt-22" style="rounded=0;orthogonalLoop=1;jettySize=auto;html=1;exitX=0;exitY=0.5;exitDx=0;exitDy=0;startArrow=none;startFill=0;entryX=1;entryY=0.5;entryDx=0;entryDy=0;" edge="1" parent="1" source="nI1Q-nyX3zTOMnRVsNWt-21" target="bSwZlp7oTd56xw5K2ig2-1">
          <mxGeometry relative="1" as="geometry">
            <mxPoint x="-1051" y="-73" as="targetPoint" />
          </mxGeometry>
        </mxCell>
        <mxCell id="nI1Q-nyX3zTOMnRVsNWt-23" value="user sends request&lt;br&gt;curl -X POST http://localhost:5021/quote ...." style="edgeLabel;html=1;align=center;verticalAlign=middle;resizable=0;points=[];" vertex="1" connectable="0" parent="nI1Q-nyX3zTOMnRVsNWt-22">
          <mxGeometry x="-0.1107" y="-3" relative="1" as="geometry">
            <mxPoint x="-10" y="-18" as="offset" />
          </mxGeometry>
        </mxCell>
        <mxCell id="nI1Q-nyX3zTOMnRVsNWt-26" value="user receives response&lt;br&gt;{&quot;currency&quot;:&quot;USDT&quot;,&quot;price&quot;:&quot;3185.6&quot;,&quot;total&quot;:&quot;4778.4&quot;}" style="edgeLabel;html=1;align=center;verticalAlign=middle;resizable=0;points=[];" vertex="1" connectable="0" parent="nI1Q-nyX3zTOMnRVsNWt-22">
          <mxGeometry x="-0.3346" y="4" relative="1" as="geometry">
            <mxPoint x="-45" y="13" as="offset" />
          </mxGeometry>
        </mxCell>
        <mxCell id="nI1Q-nyX3zTOMnRVsNWt-21" value="USER" style="rhombus;whiteSpace=wrap;html=1;fillColor=#000000;" vertex="1" parent="1">
          <mxGeometry x="-789" y="-92.5" width="80" height="80" as="geometry" />
        </mxCell>
      </root>
    </mxGraphModel>
  </diagram>
</mxfile>
